<?xml version="1.0" standalone="no"?>
<!DOCTYPE svg PUBLIC "-//W3C//DTD SVG 20010904//EN"
 "http://www.w3.org/TR/2001/REC-SVG-20010904/DTD/svg10.dtd">
<svg version="1.0" xmlns="http://www.w3.org/2000/svg"
 width="1024.000000pt" height="1024.000000pt" viewBox="0 0 1024.000000 1024.000000"
 preserveAspectRatio="xMidYMid meet">

<g transform="translate(0.000000,1024.000000) scale(0.100000,-0.100000)"
fill="#000000" stroke="none">
<path d="M3295 6636 c-73 -23 -121 -54 -173 -110 -63 -69 -92 -142 -92 -231
l0 -65 1983 0 c1090 0 2033 3 2096 7 l113 6 -6 66 c-10 91 -47 170 -110 230
-61 57 -111 84 -184 100 -81 17 -3572 14 -3627 -3z"/>
<path d="M6609 6012 c-568 -370 -829 -547 -827 -561 2 -9 47 -32 118 -59 63
-23 121 -49 129 -57 22 -21 3 -73 -75 -203 -257 -429 -662 -787 -1104 -975
-305 -130 -597 -187 -951 -187 -327 0 -540 35 -779 129 -89 34 -31 -2 125 -79
230 -115 416 -173 670 -211 184 -28 487 -30 655 -5 520 79 966 311 1366 710
177 178 277 306 440 563 21 35 44 63 49 63 6 0 64 -36 130 -80 66 -44 125 -80
132 -80 21 0 21 -10 -6 590 -24 511 -18 476 -72 442z"/>
<path d="M3026 5764 c-11 -29 -7 -1277 5 -1339 23 -123 93 -214 207 -268 l67
-32 365 -3 c376 -3 566 6 692 34 504 111 918 360 1245 749 82 97 243 324 243
343 0 5 -17 14 -37 20 -72 23 -137 66 -161 107 -29 51 -26 127 7 173 12 17 85
74 161 127 77 53 140 98 140 100 0 3 -659 5 -1464 5 -1326 0 -1464 -1 -1470
-16z m1085 -883 c23 -28 24 -59 3 -89 l-15 -22 -348 0 c-319 0 -349 1 -363 18
-34 40 -27 89 16 111 14 6 137 9 354 8 l334 -2 19 -24z m880 0 c24 -30 24 -73
0 -95 -18 -16 -49 -18 -362 -17 -301 2 -346 4 -361 18 -35 32 -13 107 35 116
12 3 168 4 345 3 l324 -1 19 -24z m-509 -278 c19 -17 24 -68 10 -91 -5 -7 -23
-17 -41 -22 -47 -13 -1001 -13 -1037 0 -35 14 -44 26 -44 66 0 38 24 61 70 67
19 3 258 3 530 0 433 -4 497 -6 512 -20z"/>
<path d="M6820 5745 c0 -16 5 -102 10 -190 36 -603 35 -634 -25 -691 -72 -68
-145 -54 -316 59 l-27 18 -32 -53 c-116 -189 -363 -465 -593 -661 l-120 -102
594 -3 c572 -2 596 -2 661 18 89 27 172 102 214 192 l29 63 0 690 0 690 -197
0 -198 0 0 -30z"/>
</g>
</svg>
